<?xml version="1.0" encoding="UTF-8"?>
<svg width="636px" height="516px" viewBox="0 0 636 516" version="1.1" xmlns="http://www.w3.org/2000/svg" xmlns:xlink="http://www.w3.org/1999/xlink">
    <!-- Generator: Sketch 49.1 (51147) - http://www.bohemiancoding.com/sketch -->
    <title>Artboard</title>
    <desc>Created with Sketch.</desc>
    <defs></defs>
    <g id="Artboard" stroke="none" stroke-width="1" fill="none" fill-rule="evenodd">
        <g id="ban" transform="translate(0.000000, 67.000000)" fill="#FFFFFF" fill-rule="nonzero">
            <path d="M382,385 C382,420.346 353.346,449 318,449 C282.654,449 254,420.346 254,385 C254,349.654 282.654,321 318,321 C353.346,321 382,349.654 382,385 Z M504.694679,274.521321 L403.494316,173.320957 C444.856589,185.573923 484.105141,206.927179 518.095,237.39 C524.904,243.492 525.124,254.092 518.659,260.557 L504.694679,274.521321 Z M291.684322,242.530299 C248.993067,247.638659 207.499336,265.236659 173.116,295.359 C166.811,300.883 157.274,300.49 151.347,294.563 L117.341,260.557 C110.876,254.092 111.096,243.492 117.905,237.39 C149.778462,208.824072 186.296779,188.25943 224.857791,175.703748 L291.684322,242.530299 Z M311.209334,80.9848919 L238.176845,7.95240305 C375.447254,-16.1783806 521.627831,22.4452581 630.419,123.866 C637.023,130.023 637.154,140.454 630.769,146.839 L596.802,180.805 C590.707,186.9 580.911,187.036 574.578,181.188 C500.402049,112.697164 405.549611,79.3006988 311.209334,80.9848919 Z M163.157284,113.952175 C126.683593,130.297778 92.2637396,152.710049 61.422,181.188 C55.089,187.036 45.293,186.9 39.198,180.805 L5.232,146.839 C-1.153,140.455 -1.022,130.023 5.582,123.866 C35.6456175,95.8390423 68.5684986,72.6058735 103.372502,54.1673953 L163.157273,113.952167 Z" id="Combined-Shape"></path>
        </g>
        <rect id="Rectangle" fill="#FFFFFF" transform="translate(315.000000, 239.000000) rotate(135.000000) translate(-315.000000, -239.000000) " x="279" y="-67" width="72" height="612" rx="8"></rect>
    </g>
</svg>
