<?xml version="1.0" encoding="UTF-8"?>
<svg width="130px" height="125px" viewBox="0 0 130 125" version="1.1" xmlns="http://www.w3.org/2000/svg" xmlns:xlink="http://www.w3.org/1999/xlink">
    <!-- Generator: Sketch 51 (57462) - http://www.bohemiancoding.com/sketch -->
    <title>icn-chest copy 2</title>
    <desc>Created with Sketch.</desc>
    <defs>
        <rect id="path-1" x="960" y="1626" width="400" height="462" rx="3"></rect>
        <filter x="-1.8%" y="-1.1%" width="103.5%" height="103.0%" filterUnits="objectBoundingBox" id="filter-2">
            <feOffset dx="0" dy="1" in="SourceAlpha" result="shadowOffsetOuter1"></feOffset>
            <feGaussianBlur stdDeviation="1.5" in="shadowOffsetOuter1" result="shadowBlurOuter1"></feGaussianBlur>
            <feColorMatrix values="0 0 0 0 0.196078431   0 0 0 0 0.196078431   0 0 0 0 0.364705882  0 0 0 0.1 0" type="matrix" in="shadowBlurOuter1" result="shadowMatrixOuter1"></feColorMatrix>
            <feOffset dx="0" dy="1" in="SourceAlpha" result="shadowOffsetOuter2"></feOffset>
            <feGaussianBlur stdDeviation="0.5" in="shadowOffsetOuter2" result="shadowBlurOuter2"></feGaussianBlur>
            <feColorMatrix values="0 0 0 0 0.196078431   0 0 0 0 0.196078431   0 0 0 0 0.364705882  0 0 0 0.05 0" type="matrix" in="shadowBlurOuter2" result="shadowMatrixOuter2"></feColorMatrix>
            <feOffset dx="0" dy="0" in="SourceAlpha" result="shadowOffsetOuter3"></feOffset>
            <feGaussianBlur stdDeviation="0.5" in="shadowOffsetOuter3" result="shadowBlurOuter3"></feGaussianBlur>
            <feColorMatrix values="0 0 0 0 0.196078431   0 0 0 0 0.196078431   0 0 0 0 0.196078431  0 0 0 0.03 0" type="matrix" in="shadowBlurOuter3" result="shadowMatrixOuter3"></feColorMatrix>
            <feMerge>
                <feMergeNode in="shadowMatrixOuter1"></feMergeNode>
                <feMergeNode in="shadowMatrixOuter2"></feMergeNode>
                <feMergeNode in="shadowMatrixOuter3"></feMergeNode>
            </feMerge>
        </filter>
    </defs>
    <g id="Page-1" stroke="none" stroke-width="1" fill="none" fill-rule="evenodd">
        <g id="Desktop-HD" transform="translate(-1095.000000, -1663.000000)">
            <rect fill="#FFFFFF" x="0" y="0" width="1440" height="3552"></rect>
            <g id="Rectangle-2-Copy-3">
                <use fill="black" fill-opacity="1" filter="url(#filter-2)" xlink:href="#path-1"></use>
                <use fill="#FFFFFF" fill-rule="evenodd" xlink:href="#path-1"></use>
            </g>
            <g id="icn-chest-copy-2" transform="translate(1095.000000, 1663.000000)" fill-rule="nonzero">
                <rect id="Rectangle-path" fill="#90DCF3" x="46" y="4" width="12" height="3"></rect>
                <path d="M94,11 L94,49.2772099 L93.7748619,49.2772099 C92.6904996,49.2772099 91.81145,50.1622786 91.81145,51.2540662 L91.81145,52 L79.2456135,52 C78.971457,51.7786604 78.7205728,51.529591 78.4968989,51.256702 C78.0073547,50.6399228 77.6356153,49.7226615 77.2403151,48.752684 C76.6094058,47.2028287 75.8973414,45.4473802 74.4025307,44.2454516 C72.9077194,43.0435229 71.0621122,42.740405 69.4285537,42.4662809 C68.3971079,42.2923175 67.4232553,42.1288974 66.7085736,41.7836066 C65.9938913,41.4383156 65.3027705,40.7925426 64.5409665,40.0993249 C63.2974726,38.9685632 61.8890516,37.6849244 59.9963222,37.2526519 C58.1638044,36.8335583 56.3810266,37.36072 54.8024435,37.8246223 C53.784087,38.1251044 52.8207064,38.4097718 52.0013089,38.4097718 C51.1819116,38.4097718 50.2185308,38.1251044 49.1975566,37.8246223 C47.626827,37.36072 45.8309595,36.8335583 44.0062954,37.2526519 C42.1135662,37.6849244 40.7025275,38.9685632 39.4616511,40.0993249 C38.6998472,40.7925426 37.9799295,41.4488589 37.2940443,41.7836066 C36.608159,42.1183542 35.6028921,42.2923175 34.5714463,42.4662809 C32.9352697,42.7298618 31.0818088,43.0514304 29.5974694,44.2454516 C28.1131299,45.4394728 27.3905943,47.2028287 26.7596846,48.752684 C26.3670022,49.7226615 25.992645,50.6399228 25.5031009,51.2593378 C25.2792913,51.5313075 25.0284115,51.7794891 24.7543865,52 L12.1885499,52 L12.1885499,51.2540662 C12.1885499,50.1622786 11.3095004,49.2772099 10.2251379,49.2772099 L10,49.2772099 L10,11 L93.9816749,11 L94,11 Z M89.0391124,44.0556734 C90.043232,43.6400662 90.5226067,42.4835764 90.1098263,41.4725812 C89.6970453,40.461586 88.5484208,39.9789284 87.5443011,40.3945355 L80.9079691,43.1594985 C80.0526402,43.5262532 79.5700196,44.4467142 79.7517323,45.3646879 C79.9334455,46.2826616 80.7296774,46.9464949 81.659301,46.9550627 C81.9170135,46.9541222 82.1721234,46.9031089 82.4106335,46.8048216 L89.0391124,44.0556734 Z M79.9733846,31.9968499 C80.4835488,31.5002683 80.687898,30.7651719 80.5078913,30.0740934 C80.3278842,29.3830149 79.7915344,28.8435014 79.1049867,28.6629137 C78.4184385,28.482326 77.6885345,28.6887675 77.1958112,29.202893 L73.8632469,32.5609129 C73.3670807,33.0604761 73.1733059,33.7886052 73.3549152,34.4710213 C73.5365244,35.1534373 74.0659272,35.6864649 74.7437021,35.8693177 C75.421477,36.0521705 76.1446546,35.8570688 76.6408202,35.3575056 L79.9733846,31.9968499 Z M68.8500014,21.5906783 C69.1198298,20.9380915 69.0233776,20.1901391 68.5969785,19.6285677 C68.1705794,19.0669962 67.4790133,18.7771217 66.7827863,18.8681369 C66.0865588,18.9591522 65.4914443,19.41723 65.2216159,20.0698168 L62.4754571,26.7436837 C62.2761346,27.2281267 62.2761398,27.7724562 62.4754712,28.2568956 C62.6748025,28.7413349 63.0571273,29.1261901 63.5383178,29.326776 C63.7759929,29.4247945 64.0301946,29.4758039 64.2870319,29.477017 C65.0819908,29.4774617 65.7989853,28.9958456 66.1038425,28.2566377 L68.8500014,21.5906783 Z M53.9725743,24.0551591 L53.9725743,19.310704 C53.9725743,18.2189163 53.0935253,17.3338477 52.0091625,17.3338477 C50.9248001,17.3338477 50.0457506,18.2189163 50.0457506,19.310704 L50.0457506,24.0551591 C50.0457506,25.1469467 50.9248001,26.0320154 52.0091625,26.0320154 C53.0935253,26.0320154 53.9725743,25.1469467 53.9725743,24.0551591 Z M40.4800075,29.326776 C41.4798409,28.9068557 41.9548243,27.7524933 41.5428678,26.7436837 L38.7967089,20.0698168 C38.3817595,19.061005 37.2331349,18.5818878 36.2311839,18.9996786 C35.229233,19.4174693 34.7533742,20.5739591 35.1683236,21.5827708 L37.9144825,28.2566377 C38.2178312,28.9959045 38.9342402,29.4778217 39.7286751,29.477017 C39.9863875,29.4760766 40.2414973,29.4250633 40.4800075,29.326776 Z M30.1524605,35.3575056 C30.5207849,34.987187 30.7277515,34.4846101 30.7277515,33.9605272 C30.7277515,33.4364442 30.5207849,32.9338673 30.1524605,32.5635487 L26.8094244,29.1949855 C26.3167013,28.6808601 25.5867971,28.4744185 24.9002492,28.6550063 C24.2137012,28.8355939 23.6773513,29.3751075 23.4973444,30.066186 C23.3173376,30.7572645 23.5216868,31.4923609 24.0318509,31.9889425 L27.374887,35.3575056 C27.7431343,35.7285121 28.2427265,35.9369614 28.7636738,35.9369614 C29.284621,35.9369614 29.7842132,35.7285121 30.1524605,35.3575056 Z M24.1732165,45.7425908 C24.5867273,44.7337796 24.1112897,43.5783132 23.1103562,43.1594985 L16.4818774,40.3945355 C15.8323259,40.1242723 15.0889124,40.2234433 14.5316736,40.6546917 C13.9744348,41.0859401 13.6880285,41.783749 13.7803413,42.4852606 C13.872654,43.1867722 14.3296612,43.7854102 14.9792128,44.0556734 L21.6076916,46.8206364 C21.847246,46.91358 22.1023322,46.9592193 22.3590239,46.9550627 C23.1511266,46.9557747 23.8662902,46.4778124 24.1732165,45.7425908 Z" id="Shape" fill="#1097C0"></path>
                <path d="M91,64 L91,93.0063548 C87.172043,95.8679674 84.6896966,100.212064 84.1464745,105 L18.8535254,105 C18.3103032,100.212064 15.8279569,95.8679674 12,93.0063548 L12,64 L40.2038937,64 L40.2038937,75.3461934 C40.2038937,76.436369 41.0762671,77.3201306 42.1523941,77.3201306 L60.8450077,77.3201306 C61.9211351,77.3201306 62.7935081,76.436369 62.7935081,75.3461934 L62.7935081,64 L91,64 Z" id="Shape" fill="#1097C0"></path>
                <path d="M52.002699,63 C53.1069156,63.00149 54.0009921,63.8975796 53.9999992,65.001798 C53.9990058,66.1060158 53.103319,67.0004959 51.9991014,66.9999998 C50.8948837,66.9995037 50.000001,66.1042194 50,65.000001 C50.0014893,63.8949945 50.8976921,62.9999989 52.002699,63 Z" id="Shape" fill="#90DCF3"></path>
                <path d="M59,55 L59,74 L45,74 L45,55 L59,55 Z M57.5102722,64.5027605 C57.5112668,61.9987302 56.1687968,59.7406932 54.1090669,58.7819268 C52.0493371,57.8231598 49.6781462,58.3525545 48.1015515,60.1231718 C46.5249568,61.893789 46.0535724,64.5567888 46.9072786,66.8699984 C47.7609847,69.1832074 49.7715879,70.6908868 52.0012292,70.6897704 C55.0421055,70.6852076 57.5062099,67.9178601 57.5102722,64.5027605 Z" id="Shape" fill="#1097C0"></path>
                <path d="M8,54 L8,92 C6.71640615,91.4485154 5.37148542,91.0832652 4,90.9136905 L4,54 L8,54 Z" id="Shape" fill="#90DCF3"></path>
                <polygon id="Shape" fill="#90DCF3" points="40 55 40 59 12 59 12 55 12.5261607 55"></polygon>
                <rect id="Rectangle-path" fill="#90DCF3" x="63" y="55" width="28" height="4"></rect>
                <path d="M99,54 L99,90.9136905 C97.6284097,91.0826356 96.2834136,91.4479061 95,92 L95,54 L99,54 Z" id="Shape" fill="#90DCF3"></path>
                <path d="M100,94 L100,106 L88,106 C88.9331727,99.7944837 93.8018459,94.9258108 100,94 Z" id="Shape" fill="#FFCE00"></path>
                <path d="M16,106 L4,106 L4,94 C10.1998676,94.9333883 15.0666114,99.800132 16,106 Z" id="Shape" fill="#90DCF3"></path>
                <path d="M74,52 L29,52 C29.2843934,51.4200106 29.5266546,50.8267795 29.7662824,50.2414935 C30.2613377,49.023251 30.727427,47.8738658 31.4278776,47.3124149 C32.1283281,46.750964 33.3317338,46.5549859 34.616771,46.3404693 C35.9018081,46.1259527 37.1947451,45.9087877 38.4244835,45.3129082 C39.654222,44.7170288 40.5969336,43.8430722 41.537012,42.9903025 C42.4770904,42.1375328 43.4382351,41.2609279 44.3335478,41.0543564 C45.1682953,40.8636749 46.3374684,41.2079608 47.5724734,41.5707852 C48.7627128,41.9203679 50.1109484,42.3176208 51.5013165,42.3176208 C52.8916846,42.3176208 54.2399202,41.9203679 55.4301595,41.5707852 C56.6651648,41.2079608 57.8317042,40.8636749 58.6690853,41.0570047 C59.5643982,41.2609279 60.4860436,42.1004559 61.4629876,42.9903025 C62.4399322,43.8801492 63.374744,44.7276222 64.5781496,45.3129082 C65.7815552,45.8981943 67.1166244,46.1259527 68.3832289,46.3404693 C69.6498328,46.5549859 70.8822048,46.7562608 71.5747554,47.3124149 C72.267306,47.868569 72.7412954,49.023251 73.2337175,50.2388452 C73.4733454,50.8241312 73.7156061,51.4332524 74,52 Z" id="Shape" fill="#FEEF62"></path>
                <path d="M104,51.1557717 L104,108.014345 C104,109.110992 103.121464,110 102.037736,110 L1.96226415,110 C0.878535582,110 0,109.110992 0,108.014345 L0,51.1557717 C0,50.0591246 0.878535582,49.1701165 1.96226415,49.1701165 L6.1013333,49.1701165 L6.1013333,8.73688266 C6.1013333,7.64023558 6.9798689,6.75122748 8.06359749,6.75122748 L41.9924527,6.75122748 L41.9924527,1.98565514 C41.9924527,0.889008091 42.8709883,0 43.9547169,0 L60.0452829,0 C61.1290114,0 62.0075471,0.889008091 62.0075471,1.98565514 L62.0075471,6.75122748 L95.9311697,6.75122748 C97.0148982,6.75122748 97.8934339,7.64023558 97.8934339,8.73688266 L97.8934339,49.1701165 L102.032503,49.1701165 C102.553834,49.1687097 103.054289,49.3772909 103.423417,49.749826 C103.792546,50.1223612 104.000002,50.6282245 104,51.1557717 Z M100.075472,106.02869 L100.075472,94.6601524 C94.2645397,95.5372452 89.7000307,100.14972 88.8251569,106.02869 L100.075472,106.02869 Z M100.075472,90.6570715 L100.075472,53.1414268 L95.7061633,53.1414268 L95.7061633,91.7610955 C97.1080592,91.1995467 98.5772636,90.8283123 100.075472,90.6570715 Z M93.9741383,49.1701165 L93.9741383,10.7225378 L10.036327,10.7225378 L10.036327,49.1701165 L10.2613333,49.1701165 C11.3450619,49.1701165 12.2235974,50.0591246 12.2235974,51.1557717 L12.2235974,51.9050256 L24.782088,51.9050256 C25.0559528,51.6835332 25.3066859,51.434247 25.5303648,51.1610668 C26.0196226,50.5388948 26.393761,49.6175508 26.7862138,48.643256 C27.4167547,47.0865024 28.1284025,45.3232406 29.6223396,44.1159623 C31.1162766,42.9086839 32.960805,42.6042168 34.5934087,42.3288727 C35.6242515,42.154135 36.6001508,41.9899875 37.314415,41.6431598 C38.0286792,41.296332 38.7193962,40.6476846 39.4807546,39.9513815 C40.7209056,38.8155868 42.1311194,37.5262347 44.0227421,37.0920381 C45.8541886,36.6710792 47.6333081,37.2005873 49.2109684,37.6665543 C50.2313458,37.9683739 51.1941634,38.2543083 52.0130817,38.2543083 C52.8320001,38.2543083 53.7948175,37.9683739 54.8125786,37.6665543 C56.3823899,37.2005873 58.179824,36.6710792 60.0034215,37.0920381 C61.8950439,37.5262347 63.3026414,38.8155868 64.5454085,39.9513815 C65.306767,40.6476846 66.0236478,41.3069221 66.7117483,41.6431598 C67.3998488,41.9793973 68.3992955,42.154135 69.4301383,42.3288727 C71.0653582,42.5936267 72.9203523,42.9166266 74.4012075,44.1159623 C75.8820626,45.315298 76.6067924,47.0865024 77.2373334,48.643256 C77.6324026,49.6175508 78.0039241,50.5388948 78.4931821,51.1584192 C78.7167389,51.4325102 78.9674753,51.6826868 79.241459,51.9050256 L91.7999494,51.9050256 L91.7999494,51.1557717 C91.7999494,50.0591246 92.6784851,49.1701165 93.7622136,49.1701165 L93.98722,49.1701165 L93.9741383,49.1701165 Z M91.781635,93.963849 L91.781635,64.7853088 L63.375899,64.7853088 L63.375899,76.1988546 C63.375899,77.2955017 62.4973638,78.1845093 61.4136349,78.1845093 L42.588981,78.1845093 C41.5052525,78.1845093 40.6267169,77.2955017 40.6267169,76.1988546 L40.6267169,64.7853088 L12.2235974,64.7853088 L12.2235974,93.963849 C16.0785942,96.8424485 18.5784752,101.212333 19.1255346,106.02869 L84.8796979,106.02869 C85.4267572,101.212333 87.9266383,96.8424485 91.781635,93.963849 Z M91.781635,60.8139982 L91.781635,55.876336 L63.375899,55.876336 L63.375899,60.8139982 L91.781635,60.8139982 Z M29.6458867,51.9050256 L74.3567296,51.9050256 C74.0741632,51.3252142 73.8334592,50.7295177 73.5953711,50.1444113 C73.1061131,48.9291904 72.6404022,47.7801579 71.947069,47.2188794 C71.2537358,46.6576009 70.0528303,46.4616829 68.7760503,46.2472321 C67.4992703,46.0327814 66.2146413,45.8156831 64.9954213,45.2199865 C63.7762009,44.62429 62.8343142,43.7506017 61.9002765,42.8980938 C60.9662389,42.0455859 60.0138868,41.16925 59.124327,40.9653894 C58.2923267,40.772119 57.1332831,41.1162992 55.9062136,41.4790122 C54.7236224,41.8284876 53.3840503,42.2256186 52.0026162,42.2256186 C50.6211823,42.2256186 49.28161,41.8284876 48.0990188,41.4790122 C46.8719496,41.1162992 45.7102892,40.772119 44.8809056,40.9627419 C43.9913458,41.16925 43.0730062,42.0085203 42.1023395,42.8980938 C41.1316729,43.7876673 40.2028678,44.6348802 39.0098112,45.2199865 C37.8167547,45.8050929 36.4850314,46.0327814 35.226566,46.2472321 C33.9681006,46.4616829 32.7462641,46.662896 32.0581635,47.2188794 C31.3700628,47.7748628 30.8991194,48.9291904 30.4072452,50.1470589 C30.1691572,50.7321652 29.9284527,51.3384519 29.6458867,51.9050256 Z M59.4513708,74.2131993 L59.4513708,55.9928277 L44.5512452,55.9928277 L44.5512452,74.2131993 L59.4513708,74.2131993 Z M58.0856351,6.75122748 L58.0856351,3.97131029 L45.916981,3.97131029 L45.916981,6.75122748 L58.0856351,6.75122748 Z M40.6267169,60.8139982 L40.6267169,55.876336 L12.2235974,55.876336 L12.2235974,60.8139982 L40.6267169,60.8139982 Z M10.2613333,106.02869 L15.16961,106.02869 C14.2957548,100.155071 9.73942155,95.544424 3.9349937,94.6601524 L3.9349937,106.02869 L10.2613333,106.02869 Z M8.29906918,91.7610955 L8.29906918,53.1414268 L3.9349937,53.1414268 L3.9349937,90.6570715 C5.43131017,90.8294114 6.89864407,91.2006178 8.29906918,91.7610955 Z" id="Shape" fill="#005268"></path>
                <path d="M81.3645961,47.9999624 C79.7605995,48.0077911 78.3766497,46.7925085 78.0644045,45.1019775 C77.7521599,43.4114464 78.5993021,41.720393 80.0845161,41.0694611 L86.3633588,38.2732703 C87.471228,37.7813975 88.7391601,37.9619585 89.6895369,38.7469378 C90.6399137,39.531917 91.1283502,40.8020575 90.9708572,42.0789095 C90.8133648,43.3557616 90.0338691,44.4453411 88.9259994,44.9372139 L82.6446765,47.7334046 C82.238029,47.9103263 81.8033137,48.0008494 81.3645961,47.9999624 Z" id="Shape" fill="#FEEF62"></path>
                <path d="M87.1562166,39.913282 C88.0560987,39.9043404 88.8349938,40.519822 89.0101931,41.3782911 C89.1853919,42.2367603 88.707236,43.0948879 87.8720547,43.4208618 L81.5567171,45.9654339 C81.3294746,46.055887 81.0864167,46.1028341 80.8408789,46.1036995 C79.9482295,46.1039377 79.1797752,45.4907616 79.0056457,44.6393039 C78.8315163,43.7878461 79.300233,42.9353651 80.1250413,42.6033968 L86.447861,40.0515476 C86.6745942,39.959184 86.9178797,39.9113685 87.1636992,39.9108563 L87.1562166,39.913282 Z M87.1636992,37.0000016 C86.524178,36.9994889 85.8909029,37.1223359 85.3005249,37.3614327 L78.9876815,39.9060048 C76.8538852,40.7738418 75.6436321,42.9830408 76.0932655,45.1894783 C76.5428989,47.3959158 78.5280365,48.9892238 80.8408789,49 C81.4710635,49.0000614 82.0952973,48.8814439 82.6791112,48.6506974 L88.9944488,46.1061253 C91.1395382,45.2434269 92.3588113,43.0267451 91.906141,40.8125668 C91.4534703,38.5983885 89.4550358,37.0039054 87.1337688,37.004853 L87.1636992,37.0000016 Z" id="Shape" fill="#005268"></path>
                <path d="M74.7150778,37.9999415 C73.2129577,37.9926683 71.8615227,37.0863439 71.2854911,35.699928 C70.709459,34.3135122 71.0210544,32.7171095 72.0762377,31.6486773 L75.5937705,28.1306292 C76.5310104,27.1663086 77.9151827,26.7809688 79.2163253,27.1221459 C80.5174679,27.4633231 81.5340241,28.4781665 81.8767821,29.7781201 C82.2195407,31.0780738 81.8354051,32.4617654 80.8714507,33.3994171 L77.3649706,36.9064195 C76.6642692,37.611484 75.7094134,38.0055212 74.7150778,37.9999415 Z" id="Shape" fill="#FEEF62"></path>
                <path d="M78.0775639,28.0248835 C78.8429832,28.0245358 79.5331216,28.4855439 79.8257487,29.1926597 C80.1183758,29.8997755 79.9557698,30.7135187 79.4138525,31.2539465 L76.204238,34.4729266 C75.4625983,35.189751 74.2831752,35.1800642 73.5534148,34.4511549 C72.8236549,33.7222456 72.8128536,32.5430955 73.5291389,31.8009462 L76.7387534,28.5895284 C77.0927667,28.2326277 77.5748111,28.0320477 78.0775639,28.0324457 L78.0775639,28.0248835 Z M78.0775639,25.0075623 C76.7740636,25.0037507 75.5231304,25.5210746 74.6032124,26.4443819 L71.3961192,29.653279 C69.5174181,31.5799195 69.5372658,34.6586626 71.4406509,36.5609319 C73.3440355,38.4632012 76.4234744,38.4819281 78.3498642,36.6029486 L81.5594787,33.3915308 C82.9658999,31.9857136 83.3866775,29.8712445 82.6255671,28.0342831 C81.8644566,26.1973217 80.0713812,24.9997109 78.0826064,25.0000001 L78.0775639,25.0075623 Z" id="Shape" fill="#005268"></path>
                <path d="M64.5944279,28.9999431 C63.141327,28.9984421 61.8321127,28.1812842 61.2767059,26.9291568 C60.9077647,26.1079407 60.9077647,25.1829952 61.2767059,24.3617791 L64.0698763,18.0774146 C64.8286896,16.3632905 66.9339922,15.5473338 68.7722017,16.2549242 C70.6104112,16.9625147 71.4854346,18.9257022 70.7266218,20.6398264 L67.9334514,26.9291568 C67.3762694,28.1888845 66.0557161,29.0078616 64.5944279,28.9999431 Z" id="Shape" fill="#FEEF62"></path>
                <path d="M66.2618579,18.003058 C66.8692893,18.0038848 67.4363052,18.3153211 67.7735842,18.8333811 C68.1108636,19.3514412 68.1739713,20.0078731 67.9418363,20.5835002 L65.401263,26.8755033 C65.1189592,27.5726907 64.4550082,28.0269292 63.7188605,28.0265098 C63.481024,28.0253656 63.2456283,27.9772559 63.0255364,27.8848092 C62.5799445,27.6956258 62.2259042,27.3326478 62.0413194,26.8757465 C61.8567346,26.4188452 61.8567297,25.9054583 62.0413063,25.4485536 L64.5843038,19.1540645 C64.8644539,18.4558462 65.5280289,18.000228 66.2642821,18.000572 L66.2618579,18.003058 Z M66.2642821,15.0174018 C64.3509669,15.0151794 62.6264417,16.2000493 61.9007021,18.0154879 L59.3601288,24.305005 C58.8801457,25.4927701 58.8799497,26.8274208 59.3595855,28.0153337 C59.8392207,29.2032466 60.7593958,30.1471086 61.9176715,30.6392697 L61.929793,30.6392697 L61.941914,30.6392697 C64.3491504,31.6468771 67.0980168,30.4717793 68.0945615,28.009108 L70.6375595,21.7121329 C71.2441619,20.2159573 71.0821116,18.5079671 70.2056398,17.1597638 C69.3291686,15.8115606 67.8540599,15.001245 66.273979,15 L66.2642821,15.0174018 Z" id="Shape" fill="#005268"></path>
                <path d="M52.0026777,59 C55.3156887,59.0014791 58.0004927,61.6878809 58,65.0008924 C57.9995073,68.3139038 55.3139038,70.9995073 52.0008924,71 C48.6878809,71.0004927 46.0014787,68.3156891 46,65.0026776 C46.0029523,61.688714 48.688714,59.0029523 52.0026777,59 Z M53.9866135,65.0026776 C53.9876962,64.1986813 53.5040709,63.4732997 52.761482,63.1651233 C52.0188928,62.8569469 51.1637662,63.0267426 50.5952545,63.5952545 C50.0267427,64.1637663 49.8569467,65.018893 50.1651232,65.7614818 C50.4732997,66.5040711 51.1986814,66.9876966 52.0026777,66.9866135 C53.0977639,66.9851386 53.9851385,66.0977639 53.9866135,65.0026776 Z" id="Shape" fill="#005268"></path>
                <path d="M51.5000001,27 C49.5681875,26.9970628 48.0028556,25.3870072 48,23.4 L48,18.6 C48,16.6117749 49.5670034,15 51.5000001,15 C53.4329967,15 55,16.6117749 55,18.6 L55,23.4 C54.9971445,25.3870072 53.4318127,26.9970628 51.5000001,27 Z" id="Shape" fill="#FEEF62"></path>
                <path d="M52.5000001,15.9473684 C53.6682951,15.9473684 54.6153846,16.7721071 54.6153846,17.7894737 L54.6153846,22.2105263 C54.6153846,23.2278929 53.6682951,24.0526316 52.5000001,24.0526316 C51.3317055,24.0526316 50.3846155,23.2278929 50.3846155,22.2105263 L50.3846155,17.7894737 C50.3838656,17.3007171 50.606495,16.8317909 51.0033693,16.4861875 C51.4002435,16.1405841 51.9387357,15.9467154 52.5000001,15.9473684 Z M52.5000001,13 C49.4637228,13.0027076 47.0031094,15.1454427 47,17.7894737 L47,22.2105263 C47,24.8556796 49.462434,27 52.5000001,27 C55.5375664,27 58,24.8556796 58,22.2105263 L58,17.7894737 C57.9968907,15.1454427 55.5362772,13.0027076 52.5000001,13 Z" id="Shape" fill="#005268"></path>
                <path d="M40.4063632,28.999989 C38.949266,29.0034546 37.6351107,28.1858225 37.0826084,26.9320383 L34.2888432,20.656365 C33.7808871,19.5501222 33.9511233,18.2754118 34.7346365,17.318312 C35.5181497,16.3612123 36.7941547,15.8692682 38.0760798,16.0300699 C39.3580048,16.1908717 40.4482302,16.9796305 40.9310265,18.0955733 L43.7274549,24.3712466 C44.483025,26.0768692 43.6140092,28.0296014 41.7832713,28.7399473 C41.346793,28.9088815 40.8791291,28.9972041 40.4063632,28.999989 Z" id="Shape" fill="#FEEF62"></path>
                <path d="M36.7266814,17.9837005 C37.4624502,17.9847029 38.1252856,18.4399472 38.4064646,19.1373981 L40.9491666,25.4330062 C41.3306021,26.3846389 40.8908092,27.4735747 39.9650512,27.8696949 C39.7442118,27.9624116 39.5080025,28.0105336 39.2693834,28.0114207 C38.5338064,28.0121798 37.8704746,27.5575765 37.5896003,26.8602096 L35.0468983,20.5646015 C34.8147904,19.988872 34.8778908,19.3323235 35.2151309,18.8141713 C35.552371,18.2960191 36.1193209,17.9845275 36.7266814,17.9837005 Z M36.7266814,15 C35.1463067,15 33.6704946,15.8101921 32.7938605,17.1590421 C31.9172263,18.507892 31.7557719,20.2169115 32.3636083,21.7133262 L34.9063104,28.0064479 C35.9017959,30.4705284 38.6506183,31.6470639 41.0582434,30.6395636 L41.072787,30.6395636 L41.0873305,30.6395636 C43.4926747,29.6093596 44.6344497,26.7791222 43.6421522,24.3066592 L41.0994502,18.0085647 C40.3676548,16.1999991 38.6453262,15.0221796 36.7363771,15.0248642 L36.7266814,15 Z" id="Shape" fill="#005268"></path>
                <path d="M29.2869723,37.9999938 C28.2986181,38.001802 27.3501967,37.6107086 26.6511532,36.9130808 L23.128439,33.3930279 C22.164579,32.4563123 21.7804809,31.0740022 22.1232056,29.7753464 C22.4659302,28.4766906 23.4823868,27.4628606 24.7834021,27.122024 C26.0844173,26.7811875 27.4684543,27.1661425 28.405603,28.1295004 L31.9200284,31.644036 C32.9775467,32.7100933 33.2910378,34.3056838 32.7152771,35.6916503 C32.1395165,37.0776169 30.7869719,37.9832278 29.2842094,37.9889591 L29.2869723,37.9999938 Z" id="Shape" fill="#FEEF62"></path>
                <path d="M25.8846268,27.9947203 C26.3835576,27.9942179 26.8621336,28.1924532 27.2145159,28.5455858 L30.4027435,31.7355978 C30.8787619,32.2101669 31.0653844,32.9025824 30.8923119,33.5520179 C30.7192394,34.2014535 30.2127659,34.7092445 29.563675,34.8841109 C28.9145841,35.0589773 28.2214882,34.8743528 27.7454697,34.3997837 L24.5572421,31.2097717 C24.0207275,30.6727108 23.8603447,29.8655545 24.1507945,29.1642491 C24.4412444,28.4629436 25.1254087,28.0054037 25.8846268,28.0047361 L25.8846268,27.9947203 Z M25.8846268,25.0000152 C23.909104,24.9997279 22.1279765,26.189356 21.3719378,28.0140731 C20.6158991,29.8387901 21.033873,31.9391651 22.4309222,33.3356117 L25.6191498,36.5256237 C26.8473117,37.7851224 28.658152,38.2868223 30.3595551,37.8389703 C32.0609583,37.3911182 33.3899126,36.0629455 33.8384828,34.3620889 C34.2870529,32.6612322 33.7858965,30.8506188 32.5265589,29.6222775 L29.3383313,26.4322655 C28.4238296,25.5125125 27.1792847,24.996774 25.8821222,25.0000152 L25.8846268,25.0000152 Z" id="Shape" fill="#005268"></path>
                <path d="M21.6561127,48 C21.2217124,47.9997718 20.7914504,47.9093045 20.3890148,47.7335787 L14.098159,44.9334916 C12.9808393,44.4505236 12.1911073,43.3599104 12.030107,42.0775295 C11.8691069,40.7951485 12.361658,39.5186896 13.3199387,38.7348978 C14.2782195,37.9511059 15.5545027,37.7808092 16.6621105,38.288946 L22.940568,41.0837047 C24.4124818,41.7431984 25.2470198,43.4267683 24.934955,45.1071163 C24.6228903,46.7874643 23.2508805,47.9979723 21.6561127,48 Z" id="Shape" fill="#FEEF62"></path>
                <path d="M15.8750791,39.9209697 C16.1213386,39.9215464 16.3650534,39.9694059 16.5922179,40.0617978 L22.9190314,42.6088427 C23.7318384,42.9482551 24.1896732,43.7937701 24.0172169,44.6369376 C23.8447605,45.4801049 23.0889914,46.0912392 22.2043913,46.1028349 C21.9592426,46.1017173 21.7166099,46.0547282 21.4897512,45.9644349 L15.1604391,43.4319583 C14.3307259,43.1016149 13.8580703,42.2464522 14.0328651,41.3918701 C14.20766,40.5372879 14.9809254,39.9227526 15.8775779,39.9258258 L15.8750791,39.9209697 Z M15.8775779,37.0121424 C13.551622,37.0100327 11.5484442,38.6056981 11.0942744,40.8223644 C10.6401045,43.0390307 11.8615942,45.2585495 14.011018,46.1222594 L20.3403302,48.6693044 C22.8183371,49.6178871 25.6210254,48.4573109 26.6332085,46.0634618 C27.6453915,43.6696126 26.4919854,40.9295769 24.043465,39.9112575 L17.741639,37.3617844 C17.1502077,37.1223933 16.5157688,36.9994244 15.8750791,37.000002 L15.8775779,37.0121424 Z" id="Shape" fill="#005268"></path>
                <path d="M16.8348424,80.9988237 L33.3335534,80.9988237 C34.8192128,80.9574718 36,79.8509132 36,78.4999998 C36,77.1490864 34.8192128,76.0425282 33.3335534,76.0011763 L16.8348424,76.0011763 C15.8325169,75.9732777 14.8929094,76.4433547 14.3826754,77.2279736 C13.8724415,78.012592 13.8724415,78.987408 14.3826754,79.7720264 C14.8929094,80.5566449 15.8325169,81.0267223 16.8348424,80.9988237 Z" id="Shape" fill="#005268" opacity="0.5"></path>
                <path d="M33.8348424,92.9988237 L50.3335534,92.9988237 C51.8192127,92.9574718 53,91.8509132 53,90.5000002 C53,89.1490868 51.8192127,88.0425282 50.3335534,88.0011763 L33.8348424,88.0011763 C32.8325169,87.9732777 31.8929094,88.4433551 31.3826754,89.2279736 C30.8724415,90.012592 30.8724415,90.987408 31.3826754,91.7720264 C31.8929094,92.5566453 32.8325169,93.0267223 33.8348424,92.9988237 Z" id="Shape" fill="#005268" opacity="0.5"></path>
                <path d="M68.8133085,84.9988237 L85.1866915,84.9988237 C86.1814032,85.0267227 87.113873,84.5566453 87.6202315,83.7720268 C88.1265895,82.9874078 88.1265895,82.0125922 87.6202315,81.2279732 C87.113873,80.4433547 86.1814032,79.9732773 85.1866915,80.0011763 L68.8133085,80.0011763 C67.8185968,79.9732773 66.886127,80.4433547 66.3797685,81.2279732 C65.8734105,82.0125922 65.8734105,82.9874078 66.3797685,83.7720268 C66.886127,84.5566453 67.8185968,85.0267227 68.8133085,84.9988237 Z" id="Shape" fill="#005268" opacity="0.5"></path>
                <path d="M56.8133081,105.998824 L73.1866919,105.998824 C74.1814032,106.026722 75.1138734,105.556645 75.6202315,104.772026 C76.1265895,103.987408 76.1265895,103.012592 75.6202315,102.227974 C75.1138734,101.443355 74.1814032,100.973278 73.1866919,101.001176 L56.8133081,101.001176 C55.8185968,100.973278 54.8861266,101.443355 54.3797685,102.227974 C53.8734105,103.012592 53.8734105,103.987408 54.3797685,104.772026 C54.8861266,105.556645 55.8185968,106.026722 56.8133081,105.998824 Z" id="Shape" fill="#005268" opacity="0.5"></path>
                <g id="Group-2" transform="translate(84.000000, 64.000000)">
                    <path d="M44.9341182,7.81139975 L23.5222035,0.207234943 C23.2510439,0.11100638 22.9553234,0.11100638 22.6841638,0.207234943 L1.27224905,7.81139975 C0.768640006,7.99095646 0.431940746,8.4700646 0.431590454,9.00761969 L0.431590454,24.2133144 C0.431590454,43.8903424 3.3306841,51.0887409 22.5348879,60.8376701 C22.8913077,61.019367 23.3124407,61.019367 23.6688604,60.8376701 C42.8730643,51.0887409 45.772158,43.9035166 45.772158,24.2133144 L45.772158,9.00761969 C45.7722018,8.47074675 45.4366943,7.99184248 44.9341182,7.81139975 Z" id="Shape" fill="#005268"></path>
                    <path d="M23.0859385,57.5920373 C7.71290301,49.7067525 3.71627466,44.6204961 2.95139435,31.0433318 L2.91952086,31.0433318 C2.82524139,29.0988156 2.78857716,27.0014784 2.78857716,24.719702 L3.35163509,10.4098548 L23.0859385,3.82274047 L42.8049736,10.4098548 L43.3680315,24.719702 C43.3680315,27.0014784 43.3313673,29.0988156 43.2370878,31.0433318 L43.205224,31.0433318 C42.4407762,44.6204961 38.4589739,49.7067525 23.0859385,57.5920373 Z" id="Combined-Shape" fill="#7AD832"></path>
                    <path d="M23.1450856,52.8952145 C5.38126254,43.783918 2.99284933,40.2163368 2.99284933,21.3692853 L2.99284933,23.7406465 C2.99284933,42.587698 5.38126254,48.6900008 23.1450856,57.8012973 C40.9089087,48.6900008 43.2973219,42.5903328 43.2973219,23.7406465 L43.2973219,21.3692853 C43.2973219,40.2163368 40.9089087,43.783918 23.1450856,52.8952145 Z" id="Shape" fill="#000000" opacity="0.1"></path>
                    <path d="M15.5896338,23.0582214 C15.589186,25.3197349 16.5916821,27.463514 18.3237384,28.9049441 L16.8624066,39.3547423 C16.8116265,39.7179452 16.919732,40.0854699 17.1587962,40.3623736 C17.3978604,40.6392772 17.7444355,40.7984007 18.1089907,40.7986377 L28.191656,40.7986377 C28.5562113,40.7984007 28.9027864,40.6392772 29.1418506,40.3623736 C29.3809148,40.0854699 29.4890203,39.7179452 29.4382401,39.3547423 L27.9769084,28.9049441 C30.6716383,26.6496404 31.4707486,22.8258139 29.906915,19.6696595 C28.3430814,16.5135051 24.8270249,14.8539466 21.4149548,15.6615029 C18.0028847,16.4690592 15.5909378,19.531636 15.5896338,23.0582214 Z" id="Shape" fill="#005268"></path>
                    <path d="M28.191656,23.0582214 C28.1877299,24.7556428 27.3392476,26.3383206 25.9315677,27.2739746 C25.5280263,27.544592 25.3142634,28.0238831 25.3816041,28.5070824 L26.7434186,38.2560116 L19.5493715,38.2560116 L20.911186,28.5070824 C20.9785267,28.0238831 20.7647639,27.544592 20.3612224,27.2739746 C18.3620058,25.9324693 17.5833766,23.3567391 18.5016647,21.122498 C19.4199528,18.8882569 21.7792948,17.618033 24.1363532,18.0888913 C26.4934115,18.5597496 28.1914373,20.6404946 28.191656,23.0582214 Z" id="Shape" fill="#DFDFE3"></path>
                    <path d="M21.9770678,38.2560116 L23.2288896,29.2975361 C23.2962303,28.8143368 23.0824674,28.3350457 22.678926,28.0644283 C20.8252177,26.8311089 19.9941671,24.5211089 20.6338121,22.3798007 C21.2734571,20.2384926 23.2325631,18.7721567 25.4549326,18.7713274 C25.6094462,18.7713274 25.7561031,18.8029456 25.9079978,18.8161198 C23.5865832,17.2772617 20.4647759,17.923126 18.9352458,20.258698 C17.4057156,22.59427 18.0476647,25.7351163 20.3690791,27.2739746 C20.7726205,27.544592 20.9863834,28.0238831 20.9190426,28.5070824 L19.5572281,38.2560116 L21.9770678,38.2560116 Z" id="Shape" fill="#000000" opacity="0.1"></path>
                </g>
            </g>
        </g>
    </g>
</svg>