<?xml version="1.0" encoding="UTF-8"?>
<svg width="134px" height="99px" viewBox="0 0 134 99" version="1.1" xmlns="http://www.w3.org/2000/svg" xmlns:xlink="http://www.w3.org/1999/xlink">
    <!-- Generator: Sketch 51 (57462) - http://www.bohemiancoding.com/sketch -->
    <title>illo-transaction</title>
    <desc>Created with Sketch.</desc>
    <defs>
        <rect id="path-1" x="520" y="1626" width="400" height="462" rx="3"></rect>
        <filter x="-1.8%" y="-1.1%" width="103.5%" height="103.0%" filterUnits="objectBoundingBox" id="filter-2">
            <feOffset dx="0" dy="1" in="SourceAlpha" result="shadowOffsetOuter1"></feOffset>
            <feGaussianBlur stdDeviation="1.5" in="shadowOffsetOuter1" result="shadowBlurOuter1"></feGaussianBlur>
            <feColorMatrix values="0 0 0 0 0.196078431   0 0 0 0 0.196078431   0 0 0 0 0.364705882  0 0 0 0.1 0" type="matrix" in="shadowBlurOuter1" result="shadowMatrixOuter1"></feColorMatrix>
            <feOffset dx="0" dy="1" in="SourceAlpha" result="shadowOffsetOuter2"></feOffset>
            <feGaussianBlur stdDeviation="0.5" in="shadowOffsetOuter2" result="shadowBlurOuter2"></feGaussianBlur>
            <feColorMatrix values="0 0 0 0 0.196078431   0 0 0 0 0.196078431   0 0 0 0 0.364705882  0 0 0 0.05 0" type="matrix" in="shadowBlurOuter2" result="shadowMatrixOuter2"></feColorMatrix>
            <feOffset dx="0" dy="0" in="SourceAlpha" result="shadowOffsetOuter3"></feOffset>
            <feGaussianBlur stdDeviation="0.5" in="shadowOffsetOuter3" result="shadowBlurOuter3"></feGaussianBlur>
            <feColorMatrix values="0 0 0 0 0.196078431   0 0 0 0 0.196078431   0 0 0 0 0.196078431  0 0 0 0.03 0" type="matrix" in="shadowBlurOuter3" result="shadowMatrixOuter3"></feColorMatrix>
            <feMerge>
                <feMergeNode in="shadowMatrixOuter1"></feMergeNode>
                <feMergeNode in="shadowMatrixOuter2"></feMergeNode>
                <feMergeNode in="shadowMatrixOuter3"></feMergeNode>
            </feMerge>
        </filter>
        <linearGradient x1="4.687%" y1="28.877%" x2="95.314%" y2="71.132%" id="linearGradient-3">
            <stop stop-color="#FFFFFF" stop-opacity="0.2" offset="0%"></stop>
            <stop stop-color="#FFFFFF" stop-opacity="0" offset="100%"></stop>
        </linearGradient>
    </defs>
    <g id="Page-1" stroke="none" stroke-width="1" fill="none" fill-rule="evenodd">
        <g id="Desktop-HD" transform="translate(-653.000000, -1676.000000)">
            <rect fill="#FFFFFF" x="0" y="0" width="1440" height="3552"></rect>
            <g id="Rectangle-2-Copy-2">
                <use fill="black" fill-opacity="1" filter="url(#filter-2)" xlink:href="#path-1"></use>
                <use fill="#FFFFFF" fill-rule="evenodd" xlink:href="#path-1"></use>
            </g>
            <g id="illo-transaction" transform="translate(653.000000, 1676.000000)" fill-rule="nonzero">
                <path d="M105.398,98.857 C102.947,98.857 100.953,96.506 100.953,93.615 L100.953,81.383 L42.137,81.383 C38.87,81.383 36.21,78.248 36.21,74.393 L36.21,60.413 C36.21,56.558 38.87,53.423 42.137,53.423 L100.953,53.423 L100.953,41.191 C100.953,38.3 102.947,35.948 105.398,35.948 C106.501,35.948 107.566,36.447 108.391,37.351 L110.304,39.438 C116.598,46.307 127.135,57.802 132.527,64.178 C133.187,64.964 133.551,66.108 133.551,67.403 C133.551,68.698 133.187,69.841 132.527,70.626 C127.135,77.004 116.598,88.499 110.303,95.368 L108.391,97.455 C107.566,98.359 106.501,98.857 105.398,98.857 Z" id="Shape" fill="#005268"></path>
                <path d="M33.845,56.918 C32.21,56.918 30.882,58.486 30.882,60.413 L30.882,74.393 C30.882,76.319 32.21,77.887 33.845,77.887 L102.435,77.887 C103.254,77.887 103.916,78.669 103.916,79.635 L103.916,93.615 C103.916,94.579 104.582,95.362 105.398,95.362 C105.85,95.362 106.18,95.106 106.376,94.892 L108.289,92.802 C114.569,85.951 125.078,74.487 130.426,68.16 C130.506,68.067 130.588,67.793 130.588,67.403 C130.588,67.012 130.507,66.739 130.426,66.643 C125.078,60.319 114.569,48.855 108.289,42.003 L106.376,39.914 C106.179,39.699 105.85,39.443 105.398,39.443 C104.582,39.443 103.916,40.226 103.916,41.191 L103.916,55.171 C103.916,56.136 103.253,56.918 102.434,56.918 L33.845,56.918 Z" id="Shape" fill="#1EB8E7"></path>
                <path d="M105.398,98.858 C102.946,98.858 100.952,96.506 100.952,93.615 L100.952,81.384 L42.137,81.384 C38.869,81.384 36.21,78.249 36.21,74.394 L36.21,60.414 C36.21,56.559 38.87,53.424 42.137,53.424 L100.953,53.424 L100.953,41.191 C100.953,38.3 102.946,35.948 105.398,35.948 C106.5,35.948 107.565,36.447 108.39,37.351 L110.303,39.438 C116.598,46.307 127.135,57.802 132.527,64.178 C133.187,64.964 133.551,66.108 133.551,67.403 C133.551,68.698 133.186,69.841 132.526,70.627 C127.135,77.004 116.598,88.499 110.303,95.367 L108.39,97.455 C107.565,98.359 106.5,98.858 105.398,98.858 Z" id="Shape" fill="url(#linearGradient-3)"></path>
                <path d="M49.291,15.935 L49.291,9.415 C49.291,-3.102 0.023,-3.102 0.023,9.415 L0.023,47.551 C0.023,52.471 7.691,55.539 16.915,56.629 C13.541,58.149 11.392,60.203 11.392,62.805 L11.392,74.245 C11.392,80.505 23.785,83.78 36.027,83.78 C48.268,83.78 60.661,80.504 60.661,74.246 L60.661,68.494 C72.254,68.174 83.401,64.927 83.401,58.992 L83.401,24.67 C83.401,16.768 63.771,13.86 49.291,15.935 Z" id="Shape" fill="#005268"></path>
                <path d="M79.61,24.773 C79.61,26.711 72.253,30.483 58.766,30.483 C45.279,30.483 37.922,26.711 37.922,24.773 C37.922,22.833 45.279,19.063 58.766,19.063 C72.253,19.063 79.61,22.833 79.61,24.773 Z" id="Shape" fill="#FEEF62"></path>
                <path d="M37.922,52.91 C38.4311614,53.4730918 38.9667641,54.0116979 39.527,54.524 C38.9925255,54.4811154 38.4574722,54.4457786 37.922,54.418 L37.922,52.91 Z" id="Shape" fill="#303C42"></path>
                <path d="M24.657,3.834 C38.144,3.834 45.501,7.606 45.501,9.544 C45.501,11.484 38.144,15.255 24.657,15.255 C11.17,15.255 3.813,11.484 3.813,9.545 C3.813,7.606 11.17,3.835 24.657,3.835 L24.657,3.834 Z" id="Shape" fill="#FEEF62"></path>
                <path d="M3.812,14.842 C8.411,17.622 16.555,19.062 24.657,19.062 C32.758,19.062 40.903,17.622 45.501,14.842 L45.501,16.733 C38.916,18.2 34.131,20.879 34.131,24.773 L34.131,25.899 C31.161,26.377 27.956,26.676 24.657,26.676 C11.17,26.676 3.813,22.904 3.813,20.966 L3.813,14.842 L3.812,14.842 Z M3.812,26.262 C8.411,29.042 16.555,30.483 24.657,30.483 C27.937,30.483 31.125,30.187 34.132,29.736 L34.132,39.223 C31.162,39.702 27.956,40 24.657,40 C11.17,40 3.812,36.23 3.812,34.29 L3.812,26.262 Z M3.812,47.614 L3.812,39.587 C8.411,42.367 16.555,43.807 24.657,43.807 C27.937,43.807 31.125,43.511 34.132,43.06 L34.132,52.547 C31.162,53.026 27.956,53.324 24.657,53.324 C11.17,53.324 3.812,49.553 3.812,47.614 Z M36.027,57.131 C49.513,57.131 56.871,60.903 56.871,62.841 C56.871,64.781 49.513,68.552 36.027,68.552 C22.54,68.552 15.182,64.78 15.182,62.842 C15.182,60.902 22.54,57.132 36.027,57.132 L36.027,57.131 Z" id="Shape" fill="#FEEF62"></path>
                <path d="M36.027,79.973 C22.54,79.973 15.182,76.201 15.182,74.263 L15.182,68.138 C19.78,70.918 27.925,72.358 36.027,72.358 C43.782,72.358 51.587,71.042 56.274,68.492 C56.471,68.5 56.674,68.5 56.871,68.507 L56.871,74.262 C56.871,76.202 49.513,79.972 36.027,79.972 L36.027,79.973 Z M60.66,64.68 L60.66,62.842 C60.66,60.463 58.87,58.542 55.98,57.068 C56.906,57.106 57.835,57.131 58.766,57.131 C66.867,57.131 75.012,55.691 79.61,52.911 L79.61,59.035 C79.61,60.877 72.896,64.336 60.66,64.679 L60.66,64.68 Z M58.766,53.324 C45.279,53.324 37.922,49.553 37.922,47.614 L37.922,41.49 C42.52,44.27 50.665,45.71 58.766,45.71 C66.868,45.71 75.012,44.27 79.61,41.49 L79.61,47.614 C79.61,49.553 72.253,53.324 58.766,53.324 Z" id="Shape" fill="#FEEF62"></path>
                <path d="M55.98,57.068 C58.87,58.541 60.66,60.463 60.66,62.842 L60.66,64.679 C61.9253813,64.639848 63.189291,64.5624794 64.45,64.447 L64.45,62.842 C64.45,60.577 63.61,58.663 62.2,57.037 C61.0563071,57.0972339 59.9112754,57.1285772 58.766,57.131 C57.836,57.131 56.906,57.106 55.979,57.068 L55.98,57.068 Z M39.816,49.626 C42.572,51.302 48.4,53.031 56.946,53.261 C52.268,51.058 45.99,49.944 39.816,49.626 Z" id="Shape" fill="#000000" opacity="0.1"></path>
                <path d="M32.237,39.456 C32.865,39.374 33.522,39.321 34.132,39.223 L34.132,29.736 C33.517,29.828 32.866,29.88 32.237,29.958 L32.237,39.456 Z M32.237,47.614 C32.237,49.387 32.939,50.928 34.132,52.27 L34.132,43.06 C33.517,43.152 32.866,43.204 32.237,43.282 L32.237,47.614 Z M32.237,24.773 L32.237,26.132 C32.865,26.05 33.522,25.997 34.132,25.899 L34.132,24.773 C34.132,20.88 38.916,18.201 45.502,16.733 L45.502,14.842 C43.302,16.172 40.277,17.186 36.847,17.892 C33.997,19.644 32.237,21.919 32.237,24.772 L32.237,24.773 Z" id="Shape" fill="#000000" opacity="0.081"></path>
                <path d="M58.766,41.904 C45.279,41.904 37.922,38.132 37.922,36.194 L37.922,30.069 C42.52,32.849 50.665,34.289 58.766,34.289 C66.868,34.289 75.012,32.849 79.61,30.069 L79.61,36.193 C79.61,38.132 72.253,41.903 58.766,41.903 L58.766,41.904 Z" id="Shape" fill="#FEEF62"></path>
                <path d="M49.291,15.935 L49.291,9.415 C49.291,-3.102 0.023,-3.102 0.023,9.415 L0.023,47.551 C0.023,52.471 7.691,55.539 16.915,56.629 C13.541,58.149 11.392,60.203 11.392,62.805 L11.392,74.245 C11.392,80.505 23.785,83.78 36.027,83.78 C48.268,83.78 60.661,80.504 60.661,74.246 L60.661,68.494 C72.254,68.174 83.401,64.927 83.401,58.992 L83.401,24.67 C83.401,16.768 63.771,13.86 49.291,15.935 Z" id="Shape" fill="url(#linearGradient-3)"></path>
            </g>
        </g>
    </g>
</svg>