<?xml version="1.0" encoding="UTF-8"?>
<svg width="130px" height="110px" viewBox="0 0 130 110" version="1.1" xmlns="http://www.w3.org/2000/svg" xmlns:xlink="http://www.w3.org/1999/xlink">
    <!-- Generator: Sketch 51 (57462) - http://www.bohemiancoding.com/sketch -->
    <title>icn-vault</title>
    <desc>Created with Sketch.</desc>
    <defs>
        <rect id="path-1" x="80" y="1626" width="400" height="462" rx="3"></rect>
        <filter x="-1.8%" y="-1.1%" width="103.5%" height="103.0%" filterUnits="objectBoundingBox" id="filter-2">
            <feOffset dx="0" dy="1" in="SourceAlpha" result="shadowOffsetOuter1"></feOffset>
            <feGaussianBlur stdDeviation="1.5" in="shadowOffsetOuter1" result="shadowBlurOuter1"></feGaussianBlur>
            <feColorMatrix values="0 0 0 0 0.196078431   0 0 0 0 0.196078431   0 0 0 0 0.364705882  0 0 0 0.1 0" type="matrix" in="shadowBlurOuter1" result="shadowMatrixOuter1"></feColorMatrix>
            <feOffset dx="0" dy="1" in="SourceAlpha" result="shadowOffsetOuter2"></feOffset>
            <feGaussianBlur stdDeviation="0.5" in="shadowOffsetOuter2" result="shadowBlurOuter2"></feGaussianBlur>
            <feColorMatrix values="0 0 0 0 0.196078431   0 0 0 0 0.196078431   0 0 0 0 0.364705882  0 0 0 0.05 0" type="matrix" in="shadowBlurOuter2" result="shadowMatrixOuter2"></feColorMatrix>
            <feOffset dx="0" dy="0" in="SourceAlpha" result="shadowOffsetOuter3"></feOffset>
            <feGaussianBlur stdDeviation="0.5" in="shadowOffsetOuter3" result="shadowBlurOuter3"></feGaussianBlur>
            <feColorMatrix values="0 0 0 0 0.196078431   0 0 0 0 0.196078431   0 0 0 0 0.196078431  0 0 0 0.03 0" type="matrix" in="shadowBlurOuter3" result="shadowMatrixOuter3"></feColorMatrix>
            <feMerge>
                <feMergeNode in="shadowMatrixOuter1"></feMergeNode>
                <feMergeNode in="shadowMatrixOuter2"></feMergeNode>
                <feMergeNode in="shadowMatrixOuter3"></feMergeNode>
            </feMerge>
        </filter>
    </defs>
    <g id="Page-1" stroke="none" stroke-width="1" fill="none" fill-rule="evenodd">
        <g id="Desktop-HD" transform="translate(-215.000000, -1671.000000)">
            <rect fill="#FFFFFF" x="0" y="0" width="1440" height="3552"></rect>
            <g id="Rectangle-2-Copy">
                <use fill="black" fill-opacity="1" filter="url(#filter-2)" xlink:href="#path-1"></use>
                <use fill="#FFFFFF" fill-rule="evenodd" xlink:href="#path-1"></use>
            </g>
            <g id="icn-vault" transform="translate(215.000000, 1671.000000)" fill-rule="nonzero">
                <g id="onboarding_icon-06">
                    <rect id="Rectangle-path" fill="#077493" x="2.20974659" y="2.16443418" width="113.528265" height="101.616628"></rect>
                    <path d="M123.847173,67.1990761 L127.901754,67.1990761 L127.901754,59.0697461 L123.847173,59.0697461 L123.847173,50.9404157 L87.3559456,50.9404157 L87.3559456,59.0697461 L91.4105265,59.0697461 L91.4105265,67.1990761 L87.3559456,67.1990761 L87.3559456,71.2637414 C80.3453654,71.2595916 73.9524032,75.2825961 70.9087699,81.6137243 C67.8651366,87.9448525 68.7091673,95.4643039 73.0802077,100.959017 C77.4512482,106.45373 84.5761821,108.951843 91.4105265,107.385912 L91.4105265,107.845728 L127.901754,107.845728 L127.901754,99.7163972 L123.847173,99.7163972 L123.847173,91.5870672 L127.901754,91.5870672 L127.901754,83.4577366 L123.847173,83.4577366 L123.847173,67.1990761 Z" id="Shape" fill="#FEEF6B"></path>
                    <path d="M67.4935674,93.6193995 L12.3461989,93.6193995 L12.3461989,81.4254043 L18.4280702,81.4254043 L18.4280702,61.1020785 L12.3461989,61.1020785 L12.3461989,44.843418 L18.4280702,44.843418 L18.4280702,24.5200924 L12.3461989,24.5200924 L12.3461989,12.326097 L105.601559,12.326097 L105.601559,48.9080831 L97.4923976,48.9080831 L97.4923976,32.6494226 L101.546979,32.6494226 L101.546979,28.5847575 L93.4378167,28.5847575 L93.4378167,48.9080831 L89.0968811,48.9080831 C87.1456139,33.9704388 74.3990255,22.391224 58.9764131,22.391224 C46.9139091,22.3621136 35.9745705,29.4833202 31.0940551,40.5418673 C26.2135398,51.6004144 28.3146069,64.5054618 36.4492883,73.4344548 C44.5839696,82.3634478 57.2142402,85.628181 68.6415205,81.7556582 C67.0822433,85.505726 66.6823196,89.6388139 67.4935674,93.6193995 Z" id="Shape" fill="#1097C0"></path>
                    <path d="M73.0356723,75.1836028 C61.0946258,82.7860829 45.3018169,79.639181 37.1686235,68.036674 C29.0354301,56.4341675 31.4332975,40.4723509 42.6144205,31.7857923 C53.7955434,23.0992337 69.8123967,24.7547453 78.9902968,35.5456247 C88.168197,46.3365042 87.2668618,62.4530031 76.9432747,72.1478062" id="Shape" fill="#7D8694"></path>
                    <rect id="Rectangle-path" fill="#005268" x="16.4007797" y="16.3907621" width="4.0545809" height="4.06466513"></rect>
                    <rect id="Rectangle-path" fill="#005268" x="97.4923976" y="16.3907621" width="4.0545809" height="4.06466513"></rect>
                    <rect id="Rectangle-path" fill="#005268" x="16.4007797" y="85.4900695" width="4.0545809" height="4.06466513"></rect>
                    <rect id="Rectangle-path" fill="#005268" x="56.9465889" y="69.231409" width="4.0545809" height="6.09699768"></rect>
                    <rect id="Rectangle-path" fill="#005268" x="56.9465889" y="30.6170901" width="4.0545809" height="6.09699768"></rect>
                    <rect id="Rectangle-path" fill="#005268" x="36.6736842" y="50.9404157" width="6.08187133" height="4.06466513"></rect>
                    <rect id="Rectangle-path" fill="#005268" x="75.1922028" y="50.9404157" width="6.08187133" height="4.06466513"></rect>
                    <rect id="Rectangle-path" fill="#005268" transform="translate(72.583342, 66.619105) rotate(-45.020000) translate(-72.583342, -66.619105) " x="70.5573191" y="63.5706057" width="4.05204678" height="6.09699768"></rect>
                    <rect id="Rectangle-path" fill="#005268" transform="translate(45.350055, 39.310105) rotate(-45.020000) translate(-45.350055, -39.310105) " x="43.3240317" y="36.2616058" width="4.05204678" height="6.09699768"></rect>
                    <rect id="Rectangle-path" fill="#005268" transform="translate(45.357236, 66.628314) rotate(-44.990000) translate(-45.357236, -66.628314) " x="42.3163005" y="64.5972512" width="6.08187133" height="4.06212471"></rect>
                    <rect id="Rectangle-path" fill="#005268" transform="translate(72.590162, 39.320724) rotate(-44.990000) translate(-72.590162, -39.320724) " x="69.5492263" y="37.2896612" width="6.08187133" height="4.06212471"></rect>
                    <path d="M70.9729046,51.2859122 L74.7183237,47.3939954 L69.3662767,46.7258661 C66.1608657,41.3502339 59.4144933,39.2829293 53.7588158,41.94324 C48.1031377,44.6035508 45.3773478,51.1263595 47.4528104,57.0334955 C49.528273,62.940631 55.7300598,66.3111285 61.8003942,64.8310045 C67.8707292,63.3508809 71.8355742,57.5014641 70.9729046,51.2986143 L70.9729046,51.2859122 Z M58.9764131,62.4129328 C53.7756778,62.4129328 49.5596491,58.1864185 49.5596491,52.9727485 C49.5596491,47.7590782 53.7756778,43.5325635 58.9764131,43.5325635 C64.1771484,43.5325635 68.3931773,47.7590782 68.3931773,52.9727485 C68.3931773,55.4768813 67.400709,57.8784143 65.6341754,59.6488654 C63.8676412,61.4193164 61.4717995,62.4136069 58.9738791,62.4129328 L58.9764131,62.4129328 Z" id="Shape" fill="#005268"></path>
                    <path d="M87.3559456,77.360739 C80.6380957,77.360739 75.1922028,82.8201766 75.1922028,89.5547343 C75.1922028,96.2892919 80.6380957,101.74873 87.3559456,101.74873 C94.0737949,101.74873 99.5196883,96.2892919 99.5196883,89.5547343 C99.5196883,82.8201766 94.0737949,77.360739 87.3559456,77.360739 Z M87.3559456,100.272748 C81.4512353,100.272748 76.6645225,95.4741299 76.6645225,89.5547343 C76.6645225,83.6353387 81.4512353,78.8367206 87.3559456,78.8367206 C93.2606553,78.8367206 98.0473686,83.6353387 98.0473686,89.5547343 C98.0417802,95.4718079 93.2583392,100.267146 87.3559456,100.272748 Z" id="Shape" fill="#FFFFFF"></path>
                    <path d="M125.874464,73.2960737 L125.874464,69.231409 L129.929045,69.231409 L129.929045,57.0374132 L125.874464,57.0374132 L125.874464,48.9080831 L117.765302,48.9080831 L117.765302,0.132101617 L0.18245614,0.132101617 L0.18245614,105.813395 L18.4280702,105.813395 L18.4280702,109.87806 L36.6736842,109.87806 L36.6736842,105.813395 L75.2454191,105.813395 C79.2909894,108.874046 84.3410079,110.288737 89.3832358,109.773903 L89.3832358,109.87806 L129.929045,109.87806 L129.929045,97.6840648 L125.874464,97.6840648 L125.874464,93.6193995 L129.929045,93.6193995 L129.929045,81.4254043 L125.874464,81.4254043 L125.874464,73.2960737 Z M121.819883,52.9727485 L121.819883,57.0374132 L89.3832358,57.0374132 L89.3832358,52.9727485 L121.819883,52.9727485 Z M107.218324,93.6193995 L121.819883,93.6193995 L121.819883,97.6840648 L105.925926,97.6840648 C106.500896,96.3793355 106.935009,95.0166967 107.220858,93.6193995 L107.218324,93.6193995 Z M103.533723,77.360739 L121.817349,77.360739 L121.817349,81.4254043 L105.925926,81.4254043 C105.289627,79.9820312 104.487658,78.6179373 103.536257,77.360739 L103.533723,77.360739 Z M101.544445,73.2960737 L99.4639376,73.2960737 C96.5268834,71.077257 93.0395788,69.7075083 89.3807018,69.335566 L89.3807018,69.231409 L121.817349,69.231409 L121.817349,73.2960737 L101.544445,73.2960737 Z M73.0331384,75.1836028 C61.0895886,82.7817658 45.2981178,79.6294963 37.1688891,68.0244358 C29.0396604,56.4193754 31.4426365,40.4586027 42.6263247,31.7756821 C53.8100129,23.0927614 69.8260966,24.7531325 79.0006958,35.5465761 C88.175295,46.3400197 87.2693874,62.4559918 76.9432747,72.1478062 C75.5225661,72.9968565 74.2103601,74.0163027 73.0356723,75.1836028 L73.0331384,75.1836028 Z M67.491033,93.6193995 L12.3461989,93.6193995 L12.3461989,81.4254043 L18.4280702,81.4254043 L18.4280702,61.1020785 L12.3461989,61.1020785 L12.3461989,44.843418 L18.4280702,44.843418 L18.4280702,24.5200924 L12.3461989,24.5200924 L12.3461989,12.326097 L105.601559,12.326097 L105.601559,48.9080831 L97.4923976,48.9080831 L97.4923976,32.6494226 L101.546979,32.6494226 L101.546979,28.5847575 L93.4378167,28.5847575 L93.4378167,48.9080831 L89.0968811,48.9080831 C87.1456139,33.9704388 74.3990255,22.391224 58.9764131,22.391224 C46.9139091,22.3621136 35.9745705,29.4833202 31.0940551,40.5418673 C26.2135398,51.6004144 28.3146069,64.5054618 36.4492883,73.4344548 C44.5839696,82.3634478 57.2142402,85.628181 68.6415205,81.7556582 C67.0822433,85.505726 66.6823196,89.6388139 67.4935674,93.6193995 L67.491033,93.6193995 Z M14.3709551,65.1667437 L14.3709551,77.360739 L10.3163743,77.360739 L10.3163743,65.1667437 L14.3709551,65.1667437 Z M14.3709551,28.5847575 L14.3709551,40.7787529 L10.3163743,40.7787529 L10.3163743,28.5847575 L14.3709551,28.5847575 Z M89.3807018,61.1020785 L89.3807018,65.1667437 L86.7807018,65.1667437 C87.3583526,63.8478828 87.8418934,62.4895809 88.2276803,61.1020785 L89.3807018,61.1020785 Z M85.3261209,68.0221707 L85.3261209,69.335566 C85.0296299,69.3660506 84.7432747,69.42194 84.4493177,69.4651272 C84.7584795,68.99261 85.0499026,68.5099305 85.3286548,68.0221707 L85.3261209,68.0221707 Z M18.4255361,101.74873 L4.23450292,101.74873 L4.23450292,4.19676674 L113.708187,4.19676674 L113.708187,48.9080831 L109.653606,48.9080831 L109.653606,8.26143187 L8.28908382,8.26143187 L8.28908382,24.5200924 L6.26179336,24.5200924 L6.26179336,44.843418 L8.28908382,44.843418 L8.28908382,61.1020785 L6.26179336,61.1020785 L6.26179336,81.4254043 L8.28908382,81.4254043 L8.28908382,97.6840648 L68.788499,97.6840648 C69.4240014,99.1273159 70.2251165,100.491405 71.1756334,101.74873 L18.4280702,101.74873 L18.4255361,101.74873 Z M71.1350879,89.5547343 C71.1355018,85.3787156 72.7462731,81.3645284 75.6306044,78.3515012 C76.9529805,77.4721382 78.2052201,76.4911275 79.3760235,75.417321 C85.1398106,72.1236776 92.3276895,72.7053399 97.4898636,76.8831409 L97.4898636,77.360739 L98.0448342,77.360739 C103.666825,82.3016955 105.191032,90.4552047 101.735172,97.1016158 C98.2793105,103.748027 90.7389896,107.16488 83.478916,105.374332 C76.2188424,103.583784 71.1205118,97.0498679 71.1350879,89.5547343 Z M125.87193,105.813395 L99.4664715,105.813395 C101.002242,104.656736 102.367264,103.28832 103.521052,101.74873 L125.861793,101.74873 L125.87193,105.813395 Z M125.87193,89.5547343 L107.626316,89.5547343 C107.626234,88.1894508 107.488695,86.8276612 107.21579,85.4900695 L125.87193,85.4900695 L125.87193,89.5547343 Z M93.4352827,65.1667437 L93.4352827,61.1020785 L125.87193,61.1020785 L125.87193,65.1667437 L93.4352827,65.1667437 Z" id="Shape" fill="#005268"></path>
                    <rect id="Rectangle-path" fill="#1097C0" x="10.3189084" y="28.5847575" width="4.0545809" height="12.1939954"></rect>
                    <rect id="Rectangle-path" fill="#1097C0" x="10.3189084" y="65.1667437" width="4.0545809" height="12.1939954"></rect>
                </g>
                <g id="logo" transform="translate(49.000000, 43.000000)">
                    <path d="M9.60782212,1.34053965 C5.04197596,1.34053965 1.34062634,5.04164992 1.34062634,9.60720082 C1.34062634,14.1727517 5.04197596,17.873862 9.60782212,17.873862 C14.1736683,17.873862 17.8750179,14.1727517 17.8750179,9.60720082 C17.8750179,7.41474594 17.0040123,5.31208835 15.4536123,3.76178865 C13.9032124,2.21148895 11.8004187,1.34053965 9.60782212,1.34053965 Z" id="Path" fill="#FFFFFF"></path>
                    <path d="M9.38438438,0 C4.201532,-3.17337657e-16 6.34716357e-16,4.20126031 0,9.38377756 C-6.34716357e-16,14.5662948 4.201532,18.7675551 9.38438438,18.7675551 C14.5672368,18.7675551 18.7687688,14.5662948 18.7687688,9.38377756 C18.7687688,6.895045 17.7800597,4.50824447 16.0201462,2.74844481 C14.2602328,0.988645153 11.8732779,1.52390917e-16 9.38438438,0 Z M12.6278622,12.316208 L10.2113833,14.7618551 C9.99384312,14.9807057 9.69882273,15.1050277 9.39024963,15.1078818 C9.08167654,15.1050277 8.78665614,14.9807057 8.569116,14.7618551 L6.1643675,12.316208 C5.94048208,12.0957392 5.81441456,11.7946702 5.81441456,11.4804654 C5.81441456,11.1662605 5.94048208,10.8651914 6.1643675,10.6447226 C6.28453942,10.5211833 6.44950435,10.451395 6.62185622,10.4511823 C6.79420815,10.451395 6.95917303,10.5211833 7.07934495,10.6447226 L8.29931492,11.8822083 C8.5882888,12.1766629 8.98353686,12.342556 9.39611488,12.342556 C9.80869285,12.342556 10.2039409,12.1766629 10.4929148,11.8822083 L11.7304805,10.6447226 C11.8506524,10.5211833 12.0156173,10.451395 12.1879692,10.4511823 C12.3603211,10.451395 12.525286,10.5211833 12.645458,10.6447226 C12.8685716,10.865976 12.9935839,11.1674877 12.9924814,11.4816932 C12.9913788,11.7958986 12.8642536,12.0965257 12.6395927,12.316208 L12.6278622,12.316208 Z M15.1675113,8.40434574 C15.0499687,8.52394314 14.8894474,8.59152671 14.721753,8.59202132 C14.5609441,8.59455192 14.4061507,8.53094233 14.2935905,8.41607547 L13.1205424,7.24310328 C12.8449265,6.96414179 12.4686926,6.80774005 12.0765297,6.80910359 C11.670664,6.8082149 11.281589,6.97102379 10.9973255,7.2606979 L9.82427742,8.46299438 C9.67259092,8.61951027 9.45055183,8.68611769 9.23775337,8.63894018 C9.11278899,8.61915415 8.99757314,8.55949261 8.90929991,8.46885922 L7.73625188,7.29588703 C7.46063603,7.01692554 7.08440214,6.8605238 6.69223911,6.86188733 C6.28637348,6.86099865 5.89729852,7.02380754 5.61303489,7.31348164 L4.43998686,8.51577812 C4.19653816,8.75191054 3.80951476,8.75191054 3.56606606,8.51577812 C3.14515389,8.06505468 3.14515389,7.36539452 3.56606606,6.91467108 L5.91216216,4.53353752 C6.12302268,4.31621632 6.41288539,4.19350865 6.7157001,4.19337559 C7.00480867,4.19303786 7.28182857,4.30933638 7.48404654,4.51594294 L9.38438438,6.45134704 L11.3199137,4.4924835 C11.531158,4.27572343 11.8207726,4.1531208 12.1234516,4.15232156 C12.4166225,4.14879553 12.6984755,4.26534372 12.9035285,4.47488891 L15.2085679,6.82083331 C15.614038,7.2774864 15.6012818,7.96882425 15.1792417,8.41021063 L15.1675113,8.40434574 Z" id="Shape" fill="#007896"></path>
                </g>
            </g>
        </g>
    </g>
</svg>