<?xml version="1.0" encoding="UTF-8"?>
<svg width="153px" height="152px" viewBox="0 0 153 152" version="1.1" xmlns="http://www.w3.org/2000/svg" xmlns:xlink="http://www.w3.org/1999/xlink">
    <!-- Generator: Sketch 51 (57462) - http://www.bohemiancoding.com/sketch -->
    <title>icn-champagne</title>
    <desc>Created with Sketch.</desc>
    <defs></defs>
    <g id="Page-1" stroke="none" stroke-width="1" fill="none" fill-rule="evenodd">
        <g id="Desktop-HD" transform="translate(-645.000000, -2628.000000)">
            <rect fill="#FFFFFF" x="0" y="0" width="1440" height="3552"></rect>
            <g id="icn-champagne" transform="translate(645.000000, 2627.000000)" fill-rule="nonzero">
                <g id="Group" transform="translate(3.000000, 25.000000)">
                    <rect id="Rectangle-path" fill="#81CC3B" transform="translate(115.739107, 9.132657) rotate(-45.000000) translate(-115.739107, -9.132657) " x="112.189334" y="0.45138807" width="7.09954669" height="17.3625381"></rect>
                    <path d="M30.662354,124.836386 L0.217978819,94.3416082 C11.7825755,80.5943097 16.7187411,75.1174569 23.6190599,68.7414895 L56.2221284,101.39602 C49.8538655,108.30723 44.1676653,113.537589 30.662354,124.836386 Z" id="Shape" fill="#7AD832"></path>
                    <path d="M85.6352057,27.5395014 C70.4610675,38.6364075 64.6904884,36.345191 46.7974743,49.1957229 L75.7230291,78.1692823 C88.494713,60.2973241 86.2399213,54.5058988 97.3544974,39.2843335 L88.1407903,36.7747941 L85.6352057,27.5395014 Z" id="Shape-2" fill="#7AD832"></path>
                </g>
                <g id="Group-2" transform="translate(17.000000, 32.000000)" fill="#7BBA38">
                    <rect id="Rectangle-path-2" transform="translate(102.860706, 5.940650) rotate(-45.000000) translate(-102.860706, -5.940650) " x="99.3364223" y="1.288673" width="7.04856682" height="9.3039548"></rect>
                    <path d="M15.5491989,119.498408 C28.9575324,108.12717 34.6029016,102.865639 40.9138007,95.9077553 L24.3453636,79.076528 L0.0395594705,103.751618 L15.5491989,119.498408 Z" id="Shape-3"></path>
                    <path d="M60.2863061,72.5321007 C72.9662797,54.5455573 70.727679,48.7170005 81.7624444,33.3978429 L72.6148985,30.8722137 L72.4450259,30.241397 L45.5399317,57.5578839 L60.2863061,72.5321007 Z" id="Shape-4"></path>
                </g>
                <g id="Group-3" transform="translate(26.000000, 33.000000)" fill="#FEEF6B">
                    <path d="M52.5184469,71.3367529 C48.4783853,76.9871882 42.3735602,84.3939681 32.9279149,94.6448003 L0.178930468,61.895816 C10.4179911,52.4454621 17.8365425,46.3359283 23.4634349,42.2935123 L52.5184469,71.3367529 Z" id="Shape-5"></path>
                    <path d="M85.5923314,0.0235434827 C75.6475646,9.9683106 68.3561479,16.2685466 62.4726314,20.5605235 L64.9894296,29.8225295 L74.2443728,32.3393279 C78.5504756,26.4534572 84.8389402,19.1549776 94.7884157,9.22198217 L85.5923314,0.0235434827 Z" id="Shape-6"></path>
                </g>
                <g id="Group-4" transform="translate(109.000000, 0.000000)" fill="#FEEF6B">
                    <rect id="Rectangle-path-3" transform="translate(23.782290, 19.642340) rotate(-45.000000) translate(-23.782290, -19.642340) " x="16.0792387" y="16.9515124" width="15.4061017" height="5.38165447"></rect>
                    <rect id="Rectangle-path-4" transform="translate(35.281198, 37.636669) rotate(-20.180000) translate(-35.281198, -37.636669) " x="27.5793464" y="34.9458413" width="15.4037028" height="5.38165447"></rect>
                    <rect id="Rectangle-path-5" transform="translate(5.866178, 9.132175) rotate(-69.820000) translate(-5.866178, -9.132175) " x="-1.83567376" y="6.44134764" width="15.4037028" height="5.38165447"></rect>
                </g>
                <path d="M107.213486,31.193189 L108.764576,32.7327703 C100.453654,40.8932519 93.4984639,46.9674724 87.5341823,51.2941864 C80.34833,56.5039986 75.3208221,58.6650194 69.9967477,60.952197 C64.4349498,63.3445054 58.6989776,65.8139096 50.1291482,71.729266 L48.542753,72.8366431 L46.3655785,74.3855695 L46.3867618,74.4065955 C40.9214654,78.4739871 34.4299549,83.9314403 26.6556767,90.9938897 L25.0504519,92.4657203 L23.311066,94.0590349 C16.9137036,100.079522 11.6343497,106.013569 1.34396392,118.136311 L0,119.722617 L33.5355481,153 L35.1266507,151.677689 C47.5589054,141.372541 53.4714052,136.078623 59.3886124,129.866565 L60.9938372,128.140084 L62.4743159,126.54677 C69.5824967,118.837182 75.0783908,112.384491 79.1856014,106.952736 L79.2067846,106.973762 L80.7672892,104.810405 L80.7814111,104.791716 L81.8900046,103.254471 C87.8025049,94.8066317 90.2880138,89.127235 92.6934975,83.6300655 C95.0118941,78.3268038 97.203191,73.3179081 102.484898,66.150328 C106.846308,60.2302993 112.977703,53.3220416 121.192123,45.0751191 L122.743213,46.6147003 L131,38.4191751 L115.465566,23 L107.213486,31.193189 Z M33.8085775,146.8884 L6.17611442,119.470303 C16.1769948,107.721359 20.940888,102.511547 26.5332842,97.2620183 L53.9280234,124.441819 L56.1758089,126.672927 C50.6187182,132.513523 45.0616275,137.529428 33.8085775,146.8884 Z M59.2685736,123.362477 L29.8826023,94.1922005 C37.732199,87.0666725 44.2401854,81.6209007 49.6537003,77.6352775 L62.7991268,90.6831703 L75.9374924,103.738072 C71.9220764,109.111421 66.4308891,115.568785 59.2685736,123.362477 Z M88.5180298,81.8241532 C86.2655372,86.9638781 83.9447868,92.2834938 78.6160049,100.007098 L53.3984405,74.9766377 C61.2339149,69.6430049 66.6003558,67.3348009 71.8043911,65.0966844 C76.6859693,62.9940696 81.3321776,61.001258 87.5318292,56.8193908 L89.5395368,64.1458352 L96.9113321,66.1363106 C92.6699605,72.3250069 90.6434228,76.9554319 88.5156761,81.8218169 L88.5180298,81.8241532 Z M99.7451894,62.2254471 L93.2466177,60.4709319 L91.4789875,54.0135682 C97.337352,49.6331207 104.073647,43.6920658 111.98444,35.9287447 L117.976966,41.8697997 C110.15326,49.7195616 104.163088,56.4058766 99.7428357,62.2231109 L99.7451894,62.2254471 Z M122.740859,40.2227514 L113.646154,31.193189 L115.472627,29.382604 L124.567332,38.407494 L122.740859,40.2227514 Z" id="Shape-7" fill="#005268"></path>
                <g id="Group-5" transform="translate(10.000000, 17.000000)" fill="#FEEF6B">
                    <polygon id="Shape-8" points="37.045688 10.899404 41.5900029 10.899404 41.5900029 7.79403988 44.6885063 7.79403988 44.6885063 3.242019 41.5900029 3.242019 41.5900029 0.13665487 37.045688 0.13665487 37.045688 3.242019 33.9471845 3.242019 33.9471845 7.79403988 37.045688 7.79403988"></polygon>
                    <polygon id="Shape-9" points="130.851821 83.0013408 126.307506 83.0013408 126.307506 86.1067054 123.209003 86.1067054 123.209003 90.6610823 126.307506 90.6610823 126.307506 93.7640901 130.851821 93.7640901 130.851821 90.6610823 133.950324 90.6610823 133.950324 86.1067054 130.851821 86.1067054"></polygon>
                    <polygon id="Shape-10" points="81.0641843 109.993034 76.5198688 109.993034 76.5198688 113.098398 73.4213656 113.098398 73.4213656 117.652775 76.5198688 117.652775 76.5198688 120.75814 81.0641843 120.75814 81.0641843 117.652775 84.1626875 117.652775 84.1626875 113.098398 81.0641843 113.098398"></polygon>
                    <rect id="Rectangle-path-6" x="0.129300218" y="57.2442541" width="5.44001281" height="5.45205811"></rect>
                    <rect id="Rectangle-path-7" x="100.689606" y="72.5354631" width="5.44001281" height="5.45205811"></rect>
                    <rect id="Rectangle-path-8" x="14.5262918" y="35.7682343" width="5.44001281" height="5.45205811"></rect>
                </g>
                <g id="Group-6" transform="translate(19.000000, 125.000000)" fill="#FFFFFF">
                    <polygon id="Shape-11" points="15.6192091 18.4249255 6.93662047 10.1764664 10.1663071 7.10826398 15.867283 12.5241911 24.6042116 5.4540832 27.5645609 8.75571135"></polygon>
                    <rect id="Rectangle-path-9" transform="translate(4.349487, 4.043619) rotate(-45.000000) translate(-4.349487, -4.043619) " x="1.61594807" y="1.08427412" width="5.46707755" height="5.91869029"></rect>
                </g>
                <g id="logo" transform="translate(52.638541, 99.808315) rotate(45.000000) translate(-52.638541, -99.808315) translate(44.138541, 91.308315)">
                    <path d="M9.08160801,1.52280868 C5.18931551,1.52280868 2.03398899,4.6781352 2.03398899,8.57042769 C2.03398899,12.4627202 5.18931551,15.6180468 9.08160801,15.6180468 C12.9739005,15.6180468 16.1292271,12.4627202 16.1292271,8.57042769 C16.1292271,6.70128294 15.3867122,4.90869346 14.0650273,3.5870085 C12.7433423,2.26532355 10.9507528,1.52280868 9.08160801,1.52280868 Z" id="Path" fill="#FFFFFF"></path>
                    <path d="M8.89113185,0.379951531 C4.47285385,0.379951531 0.891131846,3.96167353 0.891131846,8.37995153 C0.891131846,12.7982295 4.47285385,16.3799515 8.89113185,16.3799515 C13.3094099,16.3799515 16.8911318,12.7982295 16.8911318,8.37995153 C16.8911318,6.25821961 16.0482771,4.22338831 14.5479861,2.72309728 C13.047695,1.22280625 11.0128637,0.379951531 8.89113185,0.379951531 Z M11.6561318,10.8799515 L9.59613185,12.9649515 C9.41068321,13.1515294 9.15918426,13.2575183 8.89613185,13.2599515 C8.63307943,13.2575183 8.38158049,13.1515294 8.19613185,12.9649515 L6.14613185,10.8799515 C5.955274,10.6919942 5.84780395,10.4353222 5.84780395,10.1674515 C5.84780395,9.89958084 5.955274,9.64290891 6.14613185,9.45495153 C6.24857601,9.34962993 6.3892053,9.29013291 6.53613185,9.28995153 C6.68305839,9.29013291 6.82368768,9.34962993 6.92613185,9.45495153 L7.96613185,10.5099515 C8.21247629,10.7609844 8.54941735,10.9024141 8.90113185,10.9024141 C9.25284634,10.9024141 9.5897874,10.7609844 9.83613185,10.5099515 L10.8911318,9.45495153 C10.993576,9.34962993 11.1342053,9.29013291 11.2811318,9.28995153 C11.4280584,9.29013291 11.5686877,9.34962993 11.6711318,9.45495153 C11.8613317,9.64357777 11.9679023,9.90062711 11.9669624,10.1684983 C11.9660225,10.4363695 11.8576508,10.6926647 11.6661318,10.8799515 L11.6561318,10.8799515 Z M13.8211318,7.54495153 C13.7209292,7.64691249 13.5840879,7.7045299 13.4411318,7.70495153 C13.3040454,7.70710897 13.1720872,7.65287959 13.0761318,7.55495153 L12.0761318,6.55495153 C11.8411749,6.31712706 11.5204429,6.18378909 11.1861318,6.18495153 C10.8401395,6.18419391 10.5084609,6.3229942 10.2661318,6.56995153 L9.26613185,7.59495153 C9.13682215,7.72838679 8.94753825,7.78517201 8.76613185,7.74495153 C8.65960225,7.72808324 8.56138298,7.67721969 8.48613185,7.59995153 L7.48613185,6.59995153 C7.25117483,6.36212706 6.93044296,6.22878909 6.59613185,6.22995153 C6.2501395,6.22919391 5.91846086,6.3679942 5.67613185,6.61495153 L4.67613185,7.63995153 C4.4685967,7.8412627 4.13866699,7.8412627 3.93113185,7.63995153 C3.57231264,7.25569393 3.57231264,6.6592091 3.93113185,6.27495153 L5.93113185,4.24495153 C6.11088619,4.05967757 6.35798837,3.95506497 6.61613185,3.95495153 C6.86259116,3.9546636 7.09874506,4.05381218 7.27113185,4.22995153 L8.89113185,5.87995153 L10.5411318,4.20995153 C10.7212134,4.02515596 10.9681041,3.92063291 11.2261318,3.91995153 C11.4760542,3.91694547 11.7163282,4.01630689 11.8911318,4.19495153 L13.8561318,6.19495153 C14.2017869,6.58426433 14.1909126,7.17365412 13.8311318,7.54995153 L13.8211318,7.54495153 Z" id="Shape" fill="#007896"></path>
                </g>
            </g>
        </g>
    </g>
</svg>