<svg xmlns="http://www.w3.org/2000/svg" viewBox="0 0 1028.17 270"><title>mycrypto logo 2</title><path d="M134.27,14.82A120.18,120.18,0,1,0,254.45,135,120.18,120.18,0,0,0,134.27,14.82Zm43.46,159.47-30.92,31.33a17.23,17.23,0,0,1-24.57,0l-31-31.29a17.74,17.74,0,0,1,0-24.87h0a10.72,10.72,0,0,1,15.29,0l15.66,15.83a17.23,17.23,0,0,0,24.57,0l15.64-15.85a10.72,10.72,0,0,1,15.29,0h0A17.74,17.74,0,0,1,177.73,174.28Zm32.52-50.09h0a10.33,10.33,0,0,1-14.73.15l-14.94-15.11a16.61,16.61,0,0,0-23.69.25L141.66,124.9A10.49,10.49,0,0,1,133,128a10.1,10.1,0,0,1-6.37-3l-14.94-15.11a16.61,16.61,0,0,0-23.69.25L72.81,125.58a10.33,10.33,0,0,1-14.73.15h0a17.1,17.1,0,0,1,.22-24L88.38,71.27A16.61,16.61,0,0,1,112.07,71l22.39,22.64,22.78-23.08a16.61,16.61,0,0,1,23.69-.25l29.54,29.87A17.1,17.1,0,0,1,210.25,124.19Z" style="fill:#fff"/><path d="M417.66,96.35l-33.31,42.87a1.06,1.06,0,0,1-.83.41h-4.07a1.06,1.06,0,0,1-.83-.4L345.31,96.7a1.06,1.06,0,0,0-1.89.65v79.76a1.06,1.06,0,0,1-1.06,1.06H328.8a1.06,1.06,0,0,1-1.06-1.06l.19-111.23A1.06,1.06,0,0,1,329,64.82h9.76a1.06,1.06,0,0,1,.83.41l41.16,52.92a1.06,1.06,0,0,0,1.67,0l41-52.92a1.06,1.06,0,0,1,.84-.41H434A1.06,1.06,0,0,1,435,65.88V177.11a1.06,1.06,0,0,1-1.06,1.06H420.6a1.06,1.06,0,0,1-1.06-1.06V97A1.06,1.06,0,0,0,417.66,96.35Z" style="fill:#fff"/><path d="M480.18,207.63H466.41a1,1,0,0,1-.94-1.47l14.8-32.11a1,1,0,0,0,0-.86l-33.14-72.91a1,1,0,0,1,.94-1.46h14.7a1,1,0,0,1,1,.64l22.59,55.08a14.44,14.44,0,0,1,1.51,5.48h.76a18.26,18.26,0,0,1,1.12-5.44l0-.08,22.58-55a1,1,0,0,1,1-.64h13.59a1,1,0,0,1,.95,1.45L481.12,207A1,1,0,0,1,480.18,207.63Z" style="fill:#fff"/><path d="M635.77,165.73a1,1,0,0,1-.1,1.36l-.87.87a47.15,47.15,0,0,1-4.44,3.49,46.65,46.65,0,0,1-7.46,4.44,52.37,52.37,0,0,1-10.58,3.4,61.73,61.73,0,0,1-13.79,1.51q-25.12,0-41-17t-15.87-42.13q0-25.31,15.77-42.31t41.09-17A58.06,58.06,0,0,1,619.31,66q9.45,3.59,13.22,7.18l3.1,2.95a1,1,0,0,1,.12,1.38L628,87.78a1,1,0,0,1-1.58.11l-.43-.39q-.85-.76-3.68-2.74a56.13,56.13,0,0,0-5.86-3.59,35.79,35.79,0,0,0-7.84-2.83,40,40,0,0,0-9.92-1.23q-17.95,0-29.47,12.85t-11.52,31.74q0,18.7,11.52,31.55t29.47,12.85a39.63,39.63,0,0,0,15.11-2.93q7.14-2.91,10.35-5.73l.07-.06,2.14-2.14a1,1,0,0,1,1.57.11Z" style="fill:#fff"/><path d="M692.85,110.25a1,1,0,0,1-1,1h-7.34A19.37,19.37,0,0,0,670,117.43a21.23,21.23,0,0,0-6,15.4v44.29a1,1,0,0,1-1,1H649.62a1,1,0,0,1-1-1V99.87a1,1,0,0,1,1-1h9.59a1,1,0,0,1,1,1l.41,12.4h.94a21.44,21.44,0,0,1,8.88-10,26.86,26.86,0,0,1,14-3.59h7.34a1,1,0,0,1,1,1Z" style="fill:#fff"/><path d="M733.86,207.63H720.11a1,1,0,0,1-.95-1.48L734,174.06a1,1,0,0,0,0-.87l-33.13-72.9a1,1,0,0,1,.95-1.47h14.68a1,1,0,0,1,1,.65L740,154.55c1,2.27,2.41,4.09,2.41,5.48h-1c0-1.39,1.27-3.21,2-5.48L766,99.47a1,1,0,0,1,1-.65h13.57a1,1,0,0,1,1,1.46L734.81,207A1,1,0,0,1,733.86,207.63Z" style="fill:#fff"/><path d="M804.74,168.15v38.44a1,1,0,0,1-1,1H790.29a1,1,0,0,1-1-1V99.86a1,1,0,0,1,1-1h10.3a1,1,0,0,1,1,1l.09,10.49h.77a1,1,0,0,0,.86-.46l.64-1a26.55,26.55,0,0,1,3-3.21,29.86,29.86,0,0,1,5.48-4.16,33.81,33.81,0,0,1,8.22-3.21,41.84,41.84,0,0,1,11.05-1.42,34.54,34.54,0,0,1,26.45,11.43q10.58,11.43,10.58,30.13,0,18.32-10.48,29.94a33.58,33.58,0,0,1-26,11.62,45.53,45.53,0,0,1-10.86-1.23,26.8,26.8,0,0,1-7.84-3,41.82,41.82,0,0,1-4.82-3.5,15.84,15.84,0,0,1-2.71-2.79l-.06-.09-.73-1.27Zm6.23-8.78a23.27,23.27,0,0,0,19.12,7.81,22.13,22.13,0,0,0,14.32-6.1q8.69-8.38,8.69-22.58,0-12.47-6.89-20.59a21.93,21.93,0,0,0-17.47-8.12A23.11,23.11,0,0,0,811,117.62q-7.18,7.84-7.18,20.87T811,159.37Z" style="fill:#fff"/><path d="M887.27,97.77V75.7a1.05,1.05,0,0,1,1.05-1.05h13.38a1.05,1.05,0,0,1,1.05,1.05V97.77a1.05,1.05,0,0,0,1.05,1.05h20.56a1.05,1.05,0,0,1,1.05,1.05v10.17a1.05,1.05,0,0,1-1.05,1.05H903.81a1.05,1.05,0,0,0-1.05,1.05v42.77q0,11.9,11,11.9a17.55,17.55,0,0,0,5.2-.85,18.69,18.69,0,0,0,4.25-1.79l.51-.26a1.05,1.05,0,0,1,1.44.53l4,9.22a1,1,0,0,1-.31,1.24,19.85,19.85,0,0,1-2.12,1.36,28.6,28.6,0,0,1-5.09,2.07A33.89,33.89,0,0,1,910.1,180q-11.26-.35-16.88-6.59-6-6.61-6-18.32v-43a1.05,1.05,0,0,0-1.05-1.05H873.78a1.05,1.05,0,0,1-1.05-1.05V99.88a1.05,1.05,0,0,1,1.05-1.05h12.44A1.05,1.05,0,0,0,887.27,97.77Z" style="fill:#fff"/><path d="M1002.37,168.72q-11.71,11.33-28.71,11.33-17.19,0-28.71-11.33t-11.52-29.85q0-18.7,11.62-30.32t28.62-11.62a39,39,0,0,1,28.71,11.71q11.71,11.71,11.71,30.22T1002.37,168.72Zm-11-9q7.18-7.84,7.18-21.06,0-13-7.18-21.16a22.76,22.76,0,0,0-17.76-8.12,23.16,23.16,0,0,0-17.85,8q-7.27,8-7.27,21.25t7.18,21.06a24.24,24.24,0,0,0,35.7,0Z" style="fill:#fff"/></svg>