<?xml version="1.0" encoding="UTF-8"?>
<svg width="496px" height="512px" viewBox="0 0 496 512" version="1.1" xmlns="http://www.w3.org/2000/svg" xmlns:xlink="http://www.w3.org/1999/xlink">
    <!-- Generator: Sketch 49.1 (51147) - http://www.bohemiancoding.com/sketch -->
    <title>Artboard</title>
    <desc>Created with Sketch.</desc>
    <defs></defs>
    <g id="Artboard" stroke="none" stroke-width="1" fill="none" fill-rule="evenodd">
        <g id="ban" transform="translate(0.000000, 8.000000)" fill="#FFFFFF" fill-rule="nonzero">
            <path d="M248,0 C111.034,0 0,111.033 0,248 C0,384.967 111.034,496 248,496 C384.966,496 496,384.966 496,248 C496,111.034 384.967,0 248,0 Z M378.108,117.892 C443.556,183.34 448.108,283.373 398.785,353.529 L142.47,97.216 C212.674,47.86 312.696,52.481 378.108,117.892 Z M117.892,378.108 C52.444,312.66 47.892,212.627 97.215,142.471 L353.53,398.784 C283.327,448.14 183.304,443.52 117.892,378.108 Z" id="Shape"></path>
        </g>
        <g id="icon-plug" transform="translate(128.000000, 94.000000)" fill="#FFFFFF" fill-rule="nonzero">
            <path d="M228.27188,91.1268621 L15.2181253,91.1268621 C6.81328153,91.1268621 0,97.9265714 0,106.314672 L0,156.940707 C0,165.328808 6.81328153,172.128517 15.2181253,172.128517 L20.2908338,172.128517 C20.2908338,222.88618 57.7147404,264.918445 106.526877,272.246563 L106.526877,324.006621 L136.963128,324.006621 L136.963128,272.246563 C185.774631,264.918445 223.199172,222.88618 223.199172,172.128517 L228.27188,172.128517 C236.676724,172.128517 243.490005,165.328808 243.490005,156.940707 L243.490005,106.314672 C243.490005,97.9265714 236.676724,91.1268621 228.27188,91.1268621 Z M213.053755,141.752897 L192.762921,141.752897 L192.762921,172.128517 C192.762921,211.299146 161.000157,243.004966 121.745003,243.004966 C82.4961893,243.004966 50.7270845,211.305474 50.7270845,172.128517 L50.7270845,141.752897 L30.4362507,141.752897 L30.4362507,121.502483 L213.053755,121.502483 L213.053755,141.752897 Z M167.399379,81.0016552 L167.399379,15.1878104 C167.399379,6.79970926 174.21266,0 182.617504,0 C191.022348,0 197.835629,6.79970926 197.835629,15.1878104 L197.835629,81.0016552 L167.399379,81.0016552 Z M45.654376,81.0016552 L45.654376,15.1878104 C45.654376,6.79970926 52.4676576,0 60.8725014,0 C69.2773452,0 76.0906267,6.79970926 76.0906267,15.1878104 L76.0906267,81.0016552 L45.654376,81.0016552 Z" id="Shape"></path>
        </g>
    </g>
</svg>